<?xml version="1.0" standalone="no"?>
<!DOCTYPE svg PUBLIC "-//W3C//DTD SVG 20010904//EN"
 "http://www.w3.org/TR/2001/REC-SVG-20010904/DTD/svg10.dtd">
<svg version="1.0" xmlns="http://www.w3.org/2000/svg"
 width="496.000000pt" height="496.000000pt" viewBox="0 0 496.000000 496.000000"
 preserveAspectRatio="xMidYMid meet">
<metadata>
Created by potrace 1.14, written by Peter Selinger 2001-2017
</metadata>
<g transform="translate(0.000000,496.000000) scale(0.100000,-0.100000)"
fill="#000000" stroke="none">
<path d="M2337 4954 c-1 -1 -39 -5 -83 -8 -45 -4 -93 -9 -105 -11 -55 -9 -196
-35 -221 -40 -74 -15 -276 -79 -378 -120 -610 -245 -1115 -749 -1363 -1360
-40 -96 -100 -281 -111 -340 -2 -11 -9 -38 -14 -60 -35 -129 -56 -343 -56
-545 1 -233 21 -388 78 -613 45 -176 92 -300 179 -476 196 -398 489 -728 870
-979 124 -81 347 -194 488 -246 99 -36 333 -100 404 -110 22 -4 53 -9 68 -12
168 -35 564 -37 750 -4 29 5 68 12 87 15 213 36 461 120 675 230 102 52 278
157 295 175 3 3 50 39 105 80 317 239 610 625 768 1015 39 95 99 278 111 340
2 11 11 52 20 90 36 161 50 305 50 510 -1 200 -21 396 -56 530 -5 22 -11 47
-13 55 -29 145 -120 385 -212 560 -206 388 -490 698 -857 934 -326 211 -708
343 -1101 382 -62 6 -372 13 -378 8z"/>
</g>
</svg>
